<svg width="35" height="35" viewBox="0 0 35 35" fill="none" xmlns="http://www.w3.org/2000/svg">
<path d="M2.91666 17.5001H5.83332C5.82985 15.9669 6.12913 14.4482 6.71398 13.031C7.29883 11.6138 8.15774 10.326 9.24145 9.24154C10.3028 8.17665 11.5621 7.32951 12.9485 6.74779C15.8061 5.56061 19.0149 5.53915 21.8881 6.688C21.9162 7.63222 22.3114 8.52826 22.9898 9.18566C23.6682 9.84306 24.5762 10.21 25.5208 10.2084C27.5421 10.2084 29.1667 8.58383 29.1667 6.56258C29.1667 4.54133 27.5421 2.91675 25.5208 2.91675C24.516 2.91675 23.6075 3.31925 22.9498 3.97404C19.4046 2.55508 15.3329 2.57696 11.8154 4.06008C10.0816 4.78881 8.50647 5.84834 7.17791 7.17946C5.84619 8.50727 4.78613 10.082 4.05707 11.8155C3.30049 13.615 2.9127 15.548 2.91666 17.5001ZM28.2523 22.053C27.6675 23.4413 26.8275 24.6897 25.7585 25.7586C24.6896 26.8276 23.4412 27.6676 22.0514 28.2524C19.1939 29.4396 15.9851 29.461 13.1119 28.3122C13.0838 27.3679 12.6885 26.4719 12.0102 25.8145C11.3318 25.1571 10.4238 24.7902 9.47916 24.7917C7.45791 24.7917 5.83332 26.4163 5.83332 28.4376C5.83332 30.4588 7.45791 32.0834 9.47916 32.0834C10.4839 32.0834 11.3925 31.6809 12.0502 31.0261C13.782 31.7255 15.6323 32.0845 17.5 32.0834C20.3678 32.089 23.1735 31.2473 25.5648 29.6642C27.9561 28.0811 29.8265 25.8269 30.9414 23.1847C31.699 21.3854 32.0873 19.4523 32.0833 17.5001H29.1667C29.1703 19.0637 28.8594 20.612 28.2523 22.053Z" fill="#F01F4B"/>
<path d="M17.5 10.8821C13.8512 10.8821 10.8821 13.8512 10.8821 17.5C10.8821 21.1487 13.8512 24.1179 17.5 24.1179C21.1487 24.1179 24.1179 21.1487 24.1179 17.5C24.1179 13.8512 21.1487 10.8821 17.5 10.8821ZM17.5 21.2012C15.4598 21.2012 13.7987 19.5402 13.7987 17.5C13.7987 15.4598 15.4598 13.7987 17.5 13.7987C19.5402 13.7987 21.2012 15.4598 21.2012 17.5C21.2012 19.5402 19.5402 21.2012 17.5 21.2012Z" fill="#F01F4B"/>
</svg>
