<svg width="35" height="35" viewBox="0 0 35 35" fill="none" xmlns="http://www.w3.org/2000/svg">
<path d="M29.1667 8.75008H24.7917V5.83341C24.7917 4.22487 23.4836 2.91675 21.875 2.91675H13.125C11.5165 2.91675 10.2084 4.22487 10.2084 5.83341V8.75008H5.83335C4.22481 8.75008 2.91669 10.0582 2.91669 11.6667V27.7084C2.91669 29.317 4.22481 30.6251 5.83335 30.6251H29.1667C30.7752 30.6251 32.0834 29.317 32.0834 27.7084V11.6667C32.0834 10.0582 30.7752 8.75008 29.1667 8.75008ZM21.875 5.83341V8.75008H13.125V5.83341H21.875ZM11.6667 11.6667H29.1667V16.0417H5.83335V11.6667H11.6667ZM5.83335 27.7084V18.9584H14.5834V21.8751H20.4167V18.9584H29.1667L29.1681 27.7084H5.83335Z" fill="#F01F4B"/>
</svg>
