<svg width="35" height="35" viewBox="0 0 35 35" fill="none" xmlns="http://www.w3.org/2000/svg">
<path d="M10.2083 16.0417H13.125V18.9584H10.2083V16.0417ZM10.2083 21.8751H13.125V24.7917H10.2083V21.8751ZM16.0416 16.0417H18.9583V18.9584H16.0416V16.0417ZM16.0416 21.8751H18.9583V24.7917H16.0416V21.8751ZM21.875 16.0417H24.7916V18.9584H21.875V16.0417ZM21.875 21.8751H24.7916V24.7917H21.875V21.8751Z" fill="#F01F4B"/>
<path d="M7.29167 32.0834H27.7083C29.3169 32.0834 30.625 30.7753 30.625 29.1667V8.75008C30.625 7.14154 29.3169 5.83341 27.7083 5.83341H24.7917V2.91675H21.875V5.83341H13.125V2.91675H10.2083V5.83341H7.29167C5.68313 5.83341 4.375 7.14154 4.375 8.75008V29.1667C4.375 30.7753 5.68313 32.0834 7.29167 32.0834ZM27.7083 11.6667L27.7098 29.1667H7.29167V11.6667H27.7083Z" fill="#F01F4B"/>
</svg>
